<svg width="1900" height="2794" viewBox="0 0 1900 2794" fill="none" xmlns="http://www.w3.org/2000/svg">
<g clip-path="url(#clip0_15_2)">
<path d="M896.539 0.975472C896.541 0.982865 896.541 0.993695 896.542 1.0077C896.545 1.03632 896.549 1.07884 896.555 1.13465C896.565 1.24678 896.581 1.41369 896.597 1.6327C896.632 2.07105 896.675 2.72033 896.712 3.56629C896.785 5.25857 896.833 7.73988 896.721 10.9003C896.501 17.221 895.657 26.2617 893.162 37.1522C888.176 58.9322 876.592 88.1216 850.202 117.752C797.391 177.045 685.384 237.992 448.811 244.999C212.675 251.992 101.181 312.795 48.6688 371.752C22.3987 401.246 10.8645 430.307 5.89907 451.996C3.41655 462.84 2.57633 471.838 2.35667 478.123C2.24687 481.265 2.29159 483.729 2.36412 485.405C2.4004 486.243 2.44357 486.884 2.47748 487.315C2.49445 487.531 2.51036 487.694 2.52073 487.803L2.53566 487.954C2.53599 487.957 2.53547 487.96 2.53566 487.962C2.52805 487.963 2.45527 487.967 1.77497 488H3.0547V2306H1.77497L2.53566 2306.04C2.53566 2306.04 2.53601 2306.04 2.53566 2306.05L2.52073 2306.2C2.51036 2306.31 2.49445 2306.47 2.47748 2306.68C2.44356 2307.12 2.4004 2307.76 2.36412 2308.59C2.29159 2310.27 2.24685 2312.73 2.35667 2315.88C2.57633 2322.16 3.41653 2331.16 5.89907 2342C10.8645 2363.69 22.3987 2392.75 48.6688 2422.25C101.181 2481.2 212.675 2542.01 448.811 2549C685.384 2556.01 797.391 2616.95 850.202 2676.25C876.592 2705.88 888.176 2735.07 893.162 2756.85C895.657 2767.74 896.501 2776.78 896.721 2783.1C896.833 2786.26 896.785 2788.74 896.712 2790.43C896.675 2791.28 896.632 2791.93 896.597 2792.37C896.581 2792.59 896.565 2792.75 896.555 2792.87C896.549 2792.92 896.545 2792.96 896.542 2792.99C896.541 2793.01 896.539 2793.02 896.539 2793.02C896.539 2793.03 896.538 2793.03 896.538 2793.03C896.538 2793.04 896.535 2793.04 895.776 2793C895.085 2792.97 895.021 2792.96 895.015 2792.96C895.015 2792.96 895.015 2792.96 895.015 2792.95L895.03 2792.8C895.041 2792.69 895.056 2792.53 895.073 2792.32C895.107 2791.88 895.151 2791.24 895.186 2790.41C895.259 2788.73 895.304 2786.27 895.194 2783.12C894.974 2776.84 894.134 2767.84 891.652 2757C886.686 2735.31 875.152 2706.25 848.882 2676.75C796.371 2617.79 684.876 2556.99 448.741 2550C212.168 2542.99 100.16 2482.04 47.3489 2422.75C20.9578 2393.12 9.37448 2363.93 4.38814 2342.15C1.89485 2331.26 1.05027 2322.22 0.829338 2315.9C0.718877 2312.74 0.765056 2310.26 0.838288 2308.57C0.874901 2307.72 0.918629 2307.07 0.953136 2306.63C0.970383 2306.41 0.985668 2306.25 0.99639 2306.13C1.00173 2306.08 1.00535 2306.04 1.00832 2306.01C1.00978 2305.99 1.01131 2305.98 1.01131 2305.98C1.0117 2305.97 1.0128 2305.97 1.0128 2305.97C1.013 2305.96 1.01354 2305.96 1.52737 2305.99V488.011C1.02198 488.035 1.01314 488.035 1.0128 488.033C1.0126 488.031 1.0117 488.028 1.01131 488.024C1.01051 488.017 1.00978 488.006 1.00832 487.992C1.00535 487.963 1.00173 487.921 0.99639 487.865C0.98567 487.753 0.97038 487.586 0.953136 487.367C0.918631 486.929 0.874901 486.279 0.838288 485.433C0.765056 483.741 0.718881 481.26 0.829338 478.099C1.05027 471.779 1.89486 462.738 4.38814 451.848C9.37448 430.068 20.9578 400.878 47.3489 371.248C100.16 311.955 212.168 251.007 448.741 244.001C684.876 237.007 796.369 176.205 848.882 117.248C875.152 87.7534 886.686 58.6925 891.652 37.0038C894.134 26.1602 894.974 17.1616 895.194 10.8768C895.304 7.73477 895.259 5.27093 895.186 3.59461C895.151 2.75666 895.107 2.11535 895.073 1.68446C895.056 1.46906 895.041 1.30571 895.03 1.19715L895.015 1.04578C895.015 1.04258 895.015 1.03797 895.015 1.03797C895.021 1.03654 895.085 1.03303 895.776 0.999886C896.538 0.963312 896.538 0.964606 896.538 0.966682C896.538 0.966682 896.539 0.971887 896.539 0.975472Z" fill="black" fill-opacity="0.08"/>
<path d="M936.617 0.976743C936.617 0.981664 936.619 0.989624 936.619 0.999204C936.621 1.01848 936.624 1.04752 936.627 1.08514C936.633 1.16105 936.643 1.27406 936.656 1.42303C936.679 1.72172 936.711 2.16621 936.746 2.74823C936.818 3.91239 936.903 5.63011 936.96 7.84588C937.07 12.278 937.06 18.7052 936.579 26.6916C935.616 42.6644 932.764 64.8794 925.207 89.8478C910.098 139.775 876.164 200.771 800.83 244.873C725.844 288.771 692.011 349.525 676.935 399.348C669.397 424.254 666.55 446.415 665.59 462.348C665.108 470.314 665.101 476.723 665.211 481.139C665.266 483.346 665.351 485.056 665.423 486.212C665.458 486.79 665.49 487.23 665.513 487.526C665.525 487.673 665.535 487.784 665.541 487.859C665.544 487.895 665.547 487.923 665.548 487.942C665.548 487.951 665.55 487.959 665.551 487.963C665.551 487.965 665.551 487.968 665.551 487.968C665.551 487.968 665.516 487.971 664.789 488H665.916V2306H664.789L665.551 2306.03V2306.04C665.551 2306.04 665.548 2306.05 665.548 2306.06C665.547 2306.08 665.544 2306.11 665.541 2306.14C665.535 2306.22 665.525 2306.33 665.513 2306.47C665.49 2306.77 665.458 2307.21 665.423 2307.79C665.351 2308.94 665.266 2310.65 665.211 2312.86C665.101 2317.28 665.108 2323.69 665.59 2331.65C666.55 2347.59 669.397 2369.75 676.935 2394.65C692.011 2444.48 725.844 2505.23 800.83 2549.13C876.164 2593.23 910.098 2654.23 925.207 2704.15C932.764 2729.12 935.616 2751.34 936.579 2767.31C937.06 2775.3 937.07 2781.72 936.96 2786.15C936.903 2788.37 936.818 2790.09 936.746 2791.25C936.711 2791.83 936.679 2792.28 936.656 2792.58C936.643 2792.73 936.633 2792.84 936.627 2792.92C936.624 2792.95 936.621 2792.98 936.619 2793C936.619 2793.01 936.617 2793.02 936.617 2793.02C936.617 2793.03 936.616 2793.03 936.616 2793.03C936.611 2793.03 936.556 2793.03 935.854 2793C935.127 2792.97 935.092 2792.97 935.092 2792.97C935.092 2792.97 935.092 2792.97 935.092 2792.96C935.092 2792.96 935.093 2792.95 935.095 2792.94C935.096 2792.92 935.099 2792.9 935.102 2792.86C935.108 2792.78 935.118 2792.67 935.128 2792.53C935.153 2792.23 935.185 2791.79 935.22 2791.21C935.292 2790.06 935.377 2788.35 935.432 2786.14C935.542 2781.72 935.533 2775.31 935.054 2767.35C934.091 2751.41 931.246 2729.25 923.709 2704.35C908.631 2654.53 874.797 2593.77 799.813 2549.87C724.479 2505.77 690.545 2444.77 675.435 2394.85C667.879 2369.88 665.027 2347.66 664.064 2331.69C663.581 2323.71 663.572 2317.28 663.683 2312.85C663.738 2310.63 663.825 2308.91 663.897 2307.75C663.932 2307.17 663.964 2306.72 663.987 2306.42C664 2306.27 664.009 2306.16 664.016 2306.09C664.019 2306.05 664.021 2306.02 664.024 2306C664.024 2305.99 664.026 2305.98 664.026 2305.98C664.026 2305.97 664.027 2305.97 664.027 2305.97C664.027 2305.97 664.061 2305.97 664.389 2305.98V488.015C664.061 488.028 664.027 488.029 664.027 488.029C664.027 488.029 664.026 488.026 664.026 488.024C664.024 488.019 664.024 488.011 664.024 488.001C664.021 487.982 664.019 487.953 664.016 487.915C664.009 487.839 664 487.726 663.987 487.577C663.964 487.279 663.932 486.834 663.897 486.252C663.825 485.088 663.738 483.37 663.683 481.154C663.572 476.722 663.581 470.295 664.064 462.309C665.027 446.336 667.879 424.122 675.435 399.154C690.545 349.226 724.479 288.229 799.813 244.127C874.797 200.229 908.631 139.475 923.709 89.6525C931.246 64.7464 934.091 42.5858 935.054 26.6525C935.533 18.6863 935.542 12.277 935.432 7.86151C935.377 5.6541 935.292 3.94477 935.22 2.78827C935.185 2.21011 935.153 1.76985 935.128 1.47479C935.118 1.32742 935.108 1.21595 935.102 1.14178C935.099 1.10509 935.096 1.07719 935.095 1.05877C935.093 1.04963 935.092 1.04178 935.092 1.03729V1.03241C935.092 1.03241 935.133 1.02955 935.854 1.00018C936.552 0.971714 936.611 0.969943 936.616 0.970884C936.616 0.970884 936.617 0.97438 936.617 0.976743Z" fill="black" fill-opacity="0.08"/>
<path d="M1009.97 1.00021C1010.67 1.02909 1010.72 1.03143 1010.73 1.03243V1.03732C1010.73 1.0418 1010.72 1.04968 1010.72 1.0588C1010.72 1.07721 1010.72 1.10514 1010.72 1.14181C1010.71 1.21597 1010.7 1.32746 1010.69 1.47482C1010.67 1.76987 1010.63 2.21016 1010.6 2.78829C1010.53 3.94479 1010.44 5.65415 1010.39 7.86154C1010.28 12.277 1010.29 18.6863 1010.77 26.6526C1011.73 42.5858 1014.57 64.7464 1022.11 89.6526C1037.19 139.475 1071.02 200.229 1146.01 244.127C1221.34 288.229 1255.28 349.226 1270.38 399.154C1277.94 424.122 1280.79 446.336 1281.76 462.309C1282.24 470.295 1282.25 476.722 1282.14 481.155C1282.08 483.37 1281.99 485.088 1281.92 486.252C1281.89 486.834 1281.86 487.279 1281.83 487.577C1281.82 487.726 1281.81 487.839 1281.8 487.915C1281.8 487.952 1281.8 487.981 1281.8 488H1282.96V2306H1281.8C1281.8 2306.02 1281.8 2306.05 1281.8 2306.09C1281.81 2306.16 1281.82 2306.27 1281.83 2306.42C1281.86 2306.72 1281.89 2307.17 1281.92 2307.75C1281.99 2308.91 1282.08 2310.63 1282.14 2312.85C1282.25 2317.28 1282.24 2323.71 1281.76 2331.69C1280.79 2347.66 1277.94 2369.88 1270.38 2394.85C1255.28 2444.77 1221.34 2505.77 1146.01 2549.87C1071.02 2593.77 1037.19 2654.53 1022.11 2704.35C1014.57 2729.25 1011.73 2751.41 1010.77 2767.35C1010.29 2775.31 1010.28 2781.72 1010.39 2786.14C1010.44 2788.35 1010.53 2790.06 1010.6 2791.21C1010.63 2791.79 1010.67 2792.23 1010.69 2792.53C1010.7 2792.67 1010.71 2792.78 1010.72 2792.86C1010.72 2792.9 1010.72 2792.92 1010.72 2792.94C1010.72 2792.95 1010.73 2792.96 1010.73 2792.96C1010.73 2792.97 1010.73 2792.97 1010.73 2792.97C1010.73 2792.97 1010.68 2792.97 1009.97 2793C1009.26 2793.03 1009.21 2793.03 1009.2 2793.03C1009.2 2793.03 1009.2 2793.03 1009.2 2793.02C1009.2 2793.02 1009.2 2793.01 1009.2 2793C1009.2 2792.98 1009.2 2792.95 1009.19 2792.92C1009.19 2792.84 1009.18 2792.73 1009.16 2792.58C1009.14 2792.28 1009.11 2791.83 1009.07 2791.25C1009 2790.09 1008.92 2788.37 1008.86 2786.15C1008.75 2781.72 1008.76 2775.3 1009.24 2767.31C1010.2 2751.34 1013.06 2729.12 1020.61 2704.15C1035.72 2654.23 1069.66 2593.23 1144.99 2549.13C1219.97 2505.23 1253.81 2444.48 1268.89 2394.65C1276.42 2369.75 1279.27 2347.59 1280.23 2331.65C1280.71 2323.69 1280.72 2317.28 1280.61 2312.86C1280.55 2310.65 1280.47 2308.94 1280.4 2307.79C1280.36 2307.21 1280.33 2306.77 1280.3 2306.47C1280.29 2306.33 1280.29 2306.22 1280.28 2306.14C1280.28 2306.11 1280.27 2306.08 1280.27 2306.06C1280.27 2306.05 1280.27 2306.04 1280.27 2306.04V2306.03C1280.27 2306.03 1280.3 2306.03 1281.03 2306C1281.2 2305.99 1281.33 2305.99 1281.43 2305.98V488.015C1281.33 488.011 1281.2 488.007 1281.03 488C1280.3 487.971 1280.27 487.968 1280.27 487.968C1280.27 487.968 1280.27 487.965 1280.27 487.963C1280.27 487.959 1280.27 487.951 1280.27 487.942C1280.27 487.923 1280.28 487.895 1280.28 487.859C1280.29 487.784 1280.29 487.673 1280.3 487.526C1280.33 487.23 1280.36 486.79 1280.4 486.212C1280.47 485.056 1280.55 483.346 1280.61 481.139C1280.72 476.723 1280.71 470.314 1280.23 462.348C1279.27 446.415 1276.42 424.254 1268.89 399.348C1253.81 349.525 1219.97 288.771 1144.99 244.873C1069.66 200.771 1035.72 139.775 1020.61 89.8479C1013.06 64.8794 1010.2 42.6644 1009.24 26.6916C1008.76 18.7052 1008.75 12.278 1008.86 7.84591C1008.92 5.63016 1009 3.91241 1009.07 2.74826C1009.11 2.16626 1009.14 1.72174 1009.16 1.42306C1009.18 1.27411 1009.19 1.16107 1009.19 1.08517C1009.2 1.04757 1009.2 1.0185 1009.2 0.999232C1009.2 0.989672 1009.2 0.981685 1009.2 0.976771C1009.2 0.974424 1009.2 0.970911 1009.2 0.970911C1009.21 0.969908 1009.26 0.971462 1009.97 1.00021Z" fill="black" fill-opacity="0.08"/>
<path d="M1897.48 2305.98C1897.48 2305.98 1897.48 2306 1897.48 2306.01C1897.48 2306.04 1897.48 2306.08 1897.5 2306.14C1897.5 2306.25 1897.51 2306.42 1897.53 2306.63C1897.56 2307.07 1897.6 2307.72 1897.63 2308.57C1897.71 2310.26 1897.75 2312.74 1897.65 2315.9C1897.43 2322.22 1896.64 2331.26 1894.27 2342.15C1889.55 2363.93 1878.57 2393.11 1853.57 2422.74C1803.52 2482.03 1697.37 2542.99 1473.15 2550C1249.4 2556.99 1143.76 2617.78 1093.99 2676.74C1069.1 2706.24 1058.17 2735.3 1053.46 2756.99C1051.11 2767.84 1050.31 2776.84 1050.1 2783.12C1050 2786.26 1050.04 2788.73 1050.11 2790.41C1050.14 2791.24 1050.18 2791.89 1050.22 2792.32C1050.23 2792.53 1050.25 2792.69 1050.26 2792.8C1050.26 2792.86 1050.26 2792.9 1050.27 2792.93C1050.27 2792.94 1050.27 2792.95 1050.27 2792.96C1050.27 2792.96 1050.27 2792.97 1049.51 2793C1048.75 2793.03 1048.75 2793.03 1048.75 2793.03C1048.75 2793.03 1048.75 2793.03 1048.75 2793.02C1048.75 2793.01 1048.74 2793 1048.74 2792.99C1048.74 2792.96 1048.74 2792.92 1048.73 2792.86C1048.72 2792.75 1048.71 2792.58 1048.69 2792.37C1048.66 2791.93 1048.62 2791.28 1048.58 2790.43C1048.51 2788.74 1048.47 2786.26 1048.57 2783.1C1048.78 2776.78 1049.58 2767.74 1051.95 2756.85C1056.67 2735.07 1067.65 2705.89 1092.66 2676.26C1142.7 2616.97 1248.86 2556.01 1473.07 2549C1696.82 2542.01 1802.46 2481.22 1852.22 2422.26C1877.12 2392.76 1888.06 2363.7 1892.76 2342.01C1895.11 2331.16 1895.91 2322.16 1896.12 2315.88C1896.23 2312.74 1896.18 2310.27 1896.11 2308.59C1896.07 2307.76 1896.03 2307.11 1896 2306.68C1895.98 2306.47 1895.97 2306.3 1895.97 2306.2C1895.95 2306.14 1895.95 2306.1 1895.95 2306.07C1895.95 2306.06 1895.95 2306.05 1895.95 2306.04C1895.95 2306.04 1895.95 2306.03 1896.72 2306C1897.46 2305.97 1897.48 2305.97 1897.48 2305.97C1897.48 2305.97 1897.48 2305.97 1897.48 2305.98ZM1900 2306H1898.47V488H1900V2306ZM1049.51 0.9999C1050.27 1.03457 1050.27 1.03557 1050.27 1.03701C1050.27 1.03861 1050.27 1.04092 1050.27 1.04385C1050.27 1.05041 1050.27 1.06077 1050.27 1.07412C1050.26 1.10108 1050.26 1.14212 1050.26 1.19619C1050.25 1.30484 1050.23 1.46818 1050.22 1.68349C1050.18 2.11453 1050.14 2.75584 1050.11 3.59365C1050.04 5.27044 1050 7.73515 1050.1 10.8778C1050.31 17.1635 1051.11 26.163 1053.46 37.0077C1058.17 58.6989 1069.1 87.7619 1093.99 117.258C1143.76 176.216 1249.4 237.008 1473.15 244.001C1697.37 251.008 1803.52 311.966 1853.57 371.258C1878.57 400.887 1889.55 430.074 1894.27 451.851C1896.64 462.741 1897.43 471.781 1897.65 478.1C1897.75 481.26 1897.71 483.741 1897.63 485.433C1897.6 486.278 1897.56 486.927 1897.53 487.365C1897.51 487.584 1897.5 487.751 1897.5 487.863C1897.48 487.919 1897.48 487.962 1897.48 487.99C1897.48 488.004 1897.48 488.016 1897.48 488.023C1897.48 488.027 1897.48 488.029 1897.48 488.031C1897.46 488.033 1897.43 488.033 1896.72 488C1895.97 487.966 1895.95 487.964 1895.95 487.963C1895.95 487.961 1895.95 487.959 1895.95 487.956C1895.95 487.949 1895.95 487.939 1895.95 487.926C1895.95 487.899 1895.95 487.858 1895.97 487.804C1895.97 487.695 1895.98 487.532 1896 487.316C1896.03 486.885 1896.07 486.244 1896.11 485.406C1896.18 483.729 1896.23 481.265 1896.12 478.122C1895.91 471.836 1895.11 462.837 1892.76 451.992C1888.06 430.301 1877.12 401.238 1852.22 371.742C1802.46 312.784 1696.82 251.992 1473.07 244.999C1248.86 237.991 1142.7 177.034 1092.66 117.742C1067.65 88.1131 1056.67 58.9257 1051.95 37.1483C1049.58 26.2588 1048.78 17.2191 1048.57 10.8993C1048.47 7.73944 1048.51 5.25913 1048.58 3.56728C1048.62 2.72166 1048.66 2.07286 1048.69 1.63467C1048.71 1.41564 1048.72 1.24869 1048.73 1.13662C1048.74 1.08077 1048.74 1.0383 1048.74 1.00967C1048.74 0.995711 1048.75 0.984819 1048.75 0.977439C1048.75 0.973937 1048.75 0.970531 1048.75 0.96865C1048.75 0.966592 1048.75 0.96527 1049.51 0.9999Z" fill="black" fill-opacity="0.08"/>
</g>
<defs>
<clipPath id="clip0_15_2">
<rect width="1900" height="2794" fill="white"/>
</clipPath>
</defs>
</svg>
