<svg width="1410" height="2346" viewBox="0 0 1410 2346" fill="none" xmlns="http://www.w3.org/2000/svg">
<path d="M0.661991 488C0.661991 488 -16.1704 258.5 293.33 244.5C602.83 230.5 585.997 1 585.997 1" stroke="#3793D0"/>
<line x1="0.5" y1="488" x2="0.5" y2="1858" stroke="#3793D0"/>
<path d="M0.661991 1858C0.661991 1858 -16.1704 2087.5 293.33 2101.5C602.83 2115.5 585.997 2345 585.997 2345" stroke="#3793D0"/>
<path d="M1408.5 488C1408.5 488 1425.33 258.5 1115.83 244.5C806.33 230.5 823.162 1 823.162 1" stroke="#3793D0"/>
<line y1="-0.5" x2="1370" y2="-0.5" transform="matrix(0 1 1 0 1409.16 488)" stroke="#3793D0"/>
<path d="M1408.5 1858C1408.5 1858 1425.33 2087.5 1115.83 2101.5C806.33 2115.5 823.162 2345 823.162 2345" stroke="#3793D0"/>
<line x1="496.3" y1="488" x2="496.3" y2="1858" stroke="#3793D0"/>
<path d="M496.262 488C496.262 488 486.58 332.5 585 244.5C683.42 156.5 673.738 1 673.738 1" stroke="#3793D0"/>
<path d="M496.262 1858C496.262 1858 486.58 2013.5 585 2101.5C683.42 2189.5 673.738 2345 673.738 2345" stroke="#3793D0"/>
<line x1="922.7" y1="488" x2="922.7" y2="1858" stroke="#3793D0"/>
<path d="M922.738 488C922.738 488 932.42 332.5 834 244.5C735.58 156.5 745.262 1 745.262 1" stroke="#3793D0"/>
<path d="M922.738 1858C922.738 1858 932.42 2013.5 834 2101.5C735.58 2189.5 745.262 2345 745.262 2345" stroke="#3793D0"/>
</svg>